<?xml version="1.0" encoding="UTF-8" standalone="no"?>
<svg
   id="svg2181"
   viewBox="0 0 332.41 240.04"
   version="1.0"
   sodipodi:docname="frodoxv_Family.svg"
   inkscape:version="1.2.1 (9c6d41e410, 2022-07-14)"
   xmlns:inkscape="http://www.inkscape.org/namespaces/inkscape"
   xmlns:sodipodi="http://sodipodi.sourceforge.net/DTD/sodipodi-0.dtd"
   xmlns="http://www.w3.org/2000/svg"
   xmlns:svg="http://www.w3.org/2000/svg"
   xmlns:rdf="http://www.w3.org/1999/02/22-rdf-syntax-ns#"
   xmlns:cc="http://creativecommons.org/ns#"
   xmlns:dc="http://purl.org/dc/elements/1.1/">
  <defs
     id="defs17" />
  <sodipodi:namedview
     id="namedview15"
     pagecolor="#ffffff"
     bordercolor="#000000"
     borderopacity="0.25"
     inkscape:showpageshadow="2"
     inkscape:pageopacity="0.0"
     inkscape:pagecheckerboard="0"
     inkscape:deskcolor="#d1d1d1"
     showgrid="false"
     inkscape:zoom="3.3911016"
     inkscape:cx="152.60528"
     inkscape:cy="120.16744"
     inkscape:window-width="1920"
     inkscape:window-height="1001"
     inkscape:window-x="-9"
     inkscape:window-y="-9"
     inkscape:window-maximized="1"
     inkscape:current-layer="svg2181" />
  <path
     id="path23"
     style="fill:#1f1a17;fill-rule:evenodd;stroke:#1f1a17;stroke-width:0.27"
     class="fil0 str0"
     d="m 119.029,0.86 c 19.008,0 34.506,15.498 34.506,34.497 0,18.999 -15.498,34.497 -34.506,34.497 -18.999,0 -34.497,-15.498 -34.497,-34.497 0,-18.999 15.498,-34.497 34.497,-34.497 z m 84.762,-0.729 c 18.999,0 34.497,15.498 34.497,34.506 0,18.999 -15.498,34.497 -34.497,34.497 -19.008,0 -34.506,-15.498 -34.506,-34.497 0,-19.008 15.498,-34.506 34.506,-34.506 z m 63.558,110.475 c 16.011,0 29.07,13.05 29.07,29.061 0,16.011 -13.059,29.07 -29.07,29.07 -16.002,0 -29.061,-13.059 -29.061,-29.07 0,-16.011 13.059,-29.061 29.061,-29.061 z m -215.685,0.72 c 16.011,0 29.07,13.059 29.07,29.07 0,16.011 -13.059,29.07 -29.07,29.07 -16.011,0 -29.07,-13.059 -29.07,-29.07 0,-16.011 13.059,-29.07 29.07,-29.07 z m 192.051,60.12 c 0.18,22.464 0.369,44.919 0.549,67.374 l 31.509,-0.54 c -0.18,-9.063 -0.36,-18.117 -0.54,-27.171 7.056,9.603 14.121,19.197 21.186,28.8 11.952,-0.189 23.904,-0.369 35.856,-0.549 -14.121,-22.275 -28.251,-44.55 -42.372,-66.825 -16.074,5.076 -31.563,5.436 -46.188,-1.089 z M 87.25,70.943 c 32.238,15.03 54.513,8.154 72.261,-8.694 22.41,19.197 46.584,24.264 73.341,8.694 4.347,7.425 8.694,14.85 13.041,22.275 -8.496,5.202 -13.23,10.692 -16.083,18.936 -0.954,2.79 -1.701,5.886 -2.304,9.396 -1.305,7.632 -0.909,10.089 -6.246,16.155 -2.979,3.393 -6.165,6.912 -6.129,8.379 0.837,32.724 20.151,61.101 20.979,93.825 -18.216,-0.081 -49.482,-0.162 -67.707,-0.243 -2.601,-0.009 -4.122,-44.028 -6.723,-44.037 -1.953,-0.009 -2.817,43.443 -4.77,43.434 -18.873,-0.081 -39.924,0.378 -58.797,0.297 0.36,-38.574 0.729,-77.148 1.089,-115.722 C 97.96,107.132 86.539,99.536 73.669,93.218 78.196,85.793 82.723,78.368 87.25,70.943 Z M 27.562,169.817 C 22.495,197.528 13.18,216.545 0.139,239.909 H 95.026 C 81.985,214.547 71.158,193.541 71.158,170.366 54.31,178.151 44.401,177.971 27.562,169.817 Z" />
  <metadata
     id="metadata12">
    <rdf:RDF>
      <cc:Work>
        <dc:format>image/svg+xml</dc:format>
        <dc:type
           rdf:resource="http://purl.org/dc/dcmitype/StillImage" />
        <cc:license
           rdf:resource="http://creativecommons.org/licenses/publicdomain/" />
        <dc:publisher>
          <cc:Agent
             rdf:about="http://openclipart.org/">
            <dc:title>Openclipart</dc:title>
          </cc:Agent>
        </dc:publisher>
        <dc:title>Family</dc:title>
        <dc:date>2007-03-26T07:41:18</dc:date>
        <dc:description>black, black, clip art, clipart, human, human, icon, icon, image, media, people, people, png, public domain, roadsign, roadsign, silhouette, silhouette, svg, </dc:description>
        <dc:source>http://openclipart.org/detail/3672/family-by-frodoxv</dc:source>
        <dc:creator>
          <cc:Agent>
            <dc:title>frodoxv</dc:title>
          </cc:Agent>
        </dc:creator>
        <dc:subject>
          <rdf:Bag>
            <rdf:li>black</rdf:li>
            <rdf:li>clip art</rdf:li>
            <rdf:li>clipart</rdf:li>
            <rdf:li>human</rdf:li>
            <rdf:li>icon</rdf:li>
            <rdf:li>image</rdf:li>
            <rdf:li>media</rdf:li>
            <rdf:li>people</rdf:li>
            <rdf:li>png</rdf:li>
            <rdf:li>public domain</rdf:li>
            <rdf:li>roadsign</rdf:li>
            <rdf:li>silhouette</rdf:li>
            <rdf:li>svg</rdf:li>
          </rdf:Bag>
        </dc:subject>
      </cc:Work>
      <cc:License
         rdf:about="http://creativecommons.org/licenses/publicdomain/">
        <cc:permits
           rdf:resource="http://creativecommons.org/ns#Reproduction" />
        <cc:permits
           rdf:resource="http://creativecommons.org/ns#Distribution" />
        <cc:permits
           rdf:resource="http://creativecommons.org/ns#DerivativeWorks" />
      </cc:License>
    </rdf:RDF>
  </metadata>
</svg>
