<?xml version="1.0" encoding="UTF-8" standalone="no"?>
<!-- Generator: Adobe Illustrator 15.1.0, SVG Export Plug-In . SVG Version: 6.00 Build 0)  -->

<svg
   id="Layer_1"
   enable-background="new 0 0 360 360"
   xml:space="preserve"
   viewBox="0 0 288 180.008"
   version="1.1"
   y="0px"
   x="0px"
   sodipodi:docname="Mail-Icon.svg"
   width="288"
   height="180.008"
   inkscape:version="1.2.1 (9c6d41e410, 2022-07-14)"
   xmlns:inkscape="http://www.inkscape.org/namespaces/inkscape"
   xmlns:sodipodi="http://sodipodi.sourceforge.net/DTD/sodipodi-0.dtd"
   xmlns="http://www.w3.org/2000/svg"
   xmlns:svg="http://www.w3.org/2000/svg"
   xmlns:rdf="http://www.w3.org/1999/02/22-rdf-syntax-ns#"
   xmlns:cc="http://creativecommons.org/ns#"
   xmlns:dc="http://purl.org/dc/elements/1.1/"><defs
   id="defs23" /><sodipodi:namedview
   id="namedview21"
   pagecolor="#ffffff"
   bordercolor="#000000"
   borderopacity="0.25"
   inkscape:showpageshadow="2"
   inkscape:pageopacity="0.0"
   inkscape:pagecheckerboard="0"
   inkscape:deskcolor="#d1d1d1"
   showgrid="false"
   inkscape:zoom="2.2611111"
   inkscape:cx="123.61179"
   inkscape:cy="90.44226"
   inkscape:window-width="1920"
   inkscape:window-height="1001"
   inkscape:window-x="-9"
   inkscape:window-y="-9"
   inkscape:window-maximized="1"
   inkscape:current-layer="Layer_1" />

<g
   id="g16"
   transform="translate(-36,-89.996)">
	<path
   d="M 186.26,181.27 321.53,104.306 C 317.46,95.837 308.81,89.996 298.8,89.996 H 61.2 c -10.015,0 -18.664,5.841 -22.728,14.303 l 135.27,76.964 c 3.44,1.96 9.08,1.96 12.52,0.01 z"
   id="path8" />
	<path
   d="M 145.46,171.43 36.65,109.52 c -0.421,1.826 -0.65,3.725 -0.65,5.679 v 125.36 l 109.46,-69.13 z"
   id="path10" />
	<path
   d="M 324,243.93 V 115.2 c 0,-1.954 -0.229,-3.853 -0.65,-5.679 l -111.62,63.506 112.27,70.9 z"
   id="path12" />
	<path
   d="m 206.81,175.83 -20.55,11.692 c -3.442,1.958 -9.074,1.958 -12.516,0 L 150.39,174.234 36.06,246.444 c 0.843,13.15 11.773,23.56 25.14,23.56 h 237.6 c 12.292,0 22.522,-8.802 24.746,-20.445 l -116.74,-73.73 z"
   id="path14" />
</g>
<metadata
   id="metadata18"><rdf:RDF><cc:Work><dc:format>image/svg+xml</dc:format><dc:type
         rdf:resource="http://purl.org/dc/dcmitype/StillImage" /><cc:license
         rdf:resource="http://creativecommons.org/licenses/publicdomain/" /><dc:publisher><cc:Agent
           rdf:about="http://openclipart.org/"><dc:title>Openclipart</dc:title></cc:Agent></dc:publisher></cc:Work><cc:License
       rdf:about="http://creativecommons.org/licenses/publicdomain/"><cc:permits
         rdf:resource="http://creativecommons.org/ns#Reproduction" /><cc:permits
         rdf:resource="http://creativecommons.org/ns#Distribution" /><cc:permits
         rdf:resource="http://creativecommons.org/ns#DerivativeWorks" /></cc:License></rdf:RDF></metadata></svg>
