<?xml version="1.0" encoding="UTF-8" standalone="no"?>
<svg
   viewBox="-0.1 -0.1 39.367 21.604"
   version="1.1"
   id="svg12"
   sodipodi:docname="Money-icon.svg"
   inkscape:version="1.2.1 (9c6d41e410, 2022-07-14)"
   xmlns:inkscape="http://www.inkscape.org/namespaces/inkscape"
   xmlns:sodipodi="http://sodipodi.sourceforge.net/DTD/sodipodi-0.dtd"
   xmlns="http://www.w3.org/2000/svg"
   xmlns:svg="http://www.w3.org/2000/svg"
   xmlns:rdf="http://www.w3.org/1999/02/22-rdf-syntax-ns#"
   xmlns:cc="http://creativecommons.org/ns#"
   xmlns:dc="http://purl.org/dc/elements/1.1/">
  <defs
     id="defs16" />
  <sodipodi:namedview
     id="namedview14"
     pagecolor="#ffffff"
     bordercolor="#000000"
     borderopacity="0.25"
     inkscape:showpageshadow="2"
     inkscape:pageopacity="0.0"
     inkscape:pagecheckerboard="0"
     inkscape:deskcolor="#d1d1d1"
     showgrid="false"
     inkscape:zoom="18.839104"
     inkscape:cx="10.589676"
     inkscape:cy="10.271189"
     inkscape:window-width="1920"
     inkscape:window-height="1001"
     inkscape:window-x="-9"
     inkscape:window-y="-9"
     inkscape:window-maximized="1"
     inkscape:current-layer="svg12" />
  <path
     id="circle8"
     d="M 11.0165,12.563 A 5.5079999,5.5079999 0 0 1 5.5085001,18.071 5.5079999,5.5079999 0 0 1 5.0020218e-4,12.563 5.5079999,5.5079999 0 0 1 5.5085001,7.0549998 5.5079999,5.5079999 0 0 1 11.0165,12.563 Z m 0.5325,0.459 c -0.192,2.533 -1.918,4.614 -4.265,5.334 0.504,1.756 2.104,3.048 4.022,3.048 2.322,0 4.204,-1.882 4.204,-4.203 -10e-4,-2.238 -1.756,-4.051 -3.961,-4.179 M 10.293,0 9.575,8.063 c 1.2,1.09 1.976,2.64 2.009,4.383 1.962,0.114 3.595,1.405 4.221,3.178 L 37.83,17.588 39.168,2.574 Z M 36.017,15.424 16.895,13.718 17.88,2.682 37.001,4.387 Z m 0.285076,-10.4517101 -0.86953,9.7538111 -17.839155,-1.590319 0.86953,-9.7538113 z" />
  <metadata
     id="metadata10">
    <rdf:RDF>
      <cc:Work>
        <dc:format>image/svg+xml</dc:format>
        <dc:type
           rdf:resource="http://purl.org/dc/dcmitype/StillImage" />
        <cc:license
           rdf:resource="http://creativecommons.org/licenses/publicdomain/" />
        <dc:publisher>
          <cc:Agent
             rdf:about="http://openclipart.org/">
            <dc:title>Openclipart</dc:title>
          </cc:Agent>
        </dc:publisher>
      </cc:Work>
      <cc:License
         rdf:about="http://creativecommons.org/licenses/publicdomain/">
        <cc:permits
           rdf:resource="http://creativecommons.org/ns#Reproduction" />
        <cc:permits
           rdf:resource="http://creativecommons.org/ns#Distribution" />
        <cc:permits
           rdf:resource="http://creativecommons.org/ns#DerivativeWorks" />
      </cc:License>
    </rdf:RDF>
  </metadata>
</svg>
