<?xml version="1.0" standalone="no"?>
<!DOCTYPE svg PUBLIC "-//W3C//DTD SVG 20010904//EN"
 "http://www.w3.org/TR/2001/REC-SVG-20010904/DTD/svg10.dtd">
<svg version="1.0" xmlns="http://www.w3.org/2000/svg"
 width="794.000000pt" height="794.000000pt" viewBox="0 0 794.000000 794.000000"
 preserveAspectRatio="xMidYMid meet">
<metadata>
Created by potrace 1.14, written by Peter Selinger 2001-2017
</metadata>
<g transform="translate(0.000000,794.000000) scale(0.100000,-0.100000)"
fill="#000000" stroke="none">
<path d="M3431 7932 c-14 -2 -48 -28 -77 -58 -46 -47 -53 -60 -59 -107 -16
-127 15 -228 122 -399 13 -21 23 -41 23 -46 0 -9 -97 -107 -155 -157 -54 -47
-165 -108 -228 -125 -82 -23 -189 -19 -292 10 -44 12 -87 26 -96 31 -9 4 -27
10 -40 13 -13 3 -49 12 -81 21 -31 8 -89 17 -129 20 -40 3 -74 7 -77 10 -13
13 -38 -17 -40 -50 -3 -46 6 -60 121 -189 126 -138 212 -252 285 -373 34 -57
62 -105 62 -107 0 -14 92 -155 104 -159 7 -3 65 6 127 19 63 13 130 27 149 30
19 3 39 8 44 11 4 3 20 7 35 9 14 1 55 6 91 11 36 5 142 8 236 7 143 -2 191
-6 285 -27 63 -14 128 -28 144 -31 17 -3 41 -8 55 -11 14 -3 50 -8 82 -11 l56
-6 36 48 c19 27 36 55 36 62 0 6 3 12 8 12 4 0 18 21 32 48 49 95 184 301 226
349 16 17 40 44 54 60 14 15 54 59 89 98 35 38 68 81 73 95 11 28 13 79 3 89
-9 8 -177 11 -190 3 -5 -4 -17 -8 -26 -9 -8 -1 -77 -23 -153 -48 -114 -37
-155 -46 -234 -50 -58 -3 -111 0 -136 7 -55 16 -156 69 -209 110 -71 55 -177
165 -177 183 0 9 9 30 21 46 11 16 18 29 14 29 -3 0 1 10 9 23 28 43 85 194
92 243 16 117 5 172 -43 219 -20 19 -44 35 -54 35 -10 0 -20 4 -23 9 -6 9
-144 11 -195 3z"/>
<path d="M3458 6265 c-3 -3 -45 -7 -94 -10 -49 -2 -105 -6 -124 -9 -19 -3 -51
-8 -70 -11 -78 -11 -142 -25 -217 -45 -64 -17 -90 -30 -132 -67 -28 -24 -62
-63 -76 -86 -23 -40 -78 -181 -145 -372 -37 -107 -42 -119 -115 -299 -31 -76
-71 -184 -90 -240 -19 -55 -39 -110 -44 -121 -6 -11 -24 -63 -41 -115 -18 -52
-35 -104 -40 -115 -18 -44 -42 -111 -45 -125 -2 -8 -18 -53 -35 -100 -17 -47
-37 -103 -45 -125 -26 -79 -95 -271 -123 -345 -15 -41 -29 -78 -30 -83 -1 -4
-8 -22 -15 -40 -8 -17 -20 -50 -27 -72 -7 -22 -15 -44 -19 -50 -3 -5 -6 -14
-7 -20 -1 -5 -48 -136 -104 -290 -56 -154 -103 -284 -105 -290 -1 -5 -5 -17
-8 -25 -15 -34 -276 -793 -282 -820 -2 -8 -4 -16 -5 -17 -2 -2 -3 -6 -4 -10
-1 -5 -21 -69 -45 -143 -24 -74 -43 -136 -42 -138 1 -1 -5 -18 -13 -37 -9 -20
-15 -36 -15 -38 1 -1 -4 -22 -11 -47 -7 -25 -13 -49 -14 -55 -2 -5 -8 -36 -15
-69 -27 -125 10 -221 114 -289 67 -43 131 -60 230 -61 105 -1 122 6 210 89 81
76 124 84 125 22 0 -28 49 -117 83 -152 56 -56 115 -64 221 -29 28 10 62 25
76 34 14 9 90 60 170 113 203 135 238 165 270 233 18 40 22 63 35 193 3 29 8
58 12 64 3 6 1 7 -6 3 -8 -5 -7 5 3 29 9 21 16 39 16 40 0 13 84 37 138 40
201 12 261 18 307 29 11 2 49 11 85 20 44 10 98 14 165 12 121 -4 138 -8 187
-42 34 -24 41 -37 64 -113 31 -101 38 -113 84 -158 59 -58 162 -94 239 -85 54
6 111 52 169 136 28 42 52 80 52 85 0 4 22 30 48 58 51 54 102 86 119 75 15
-10 39 -61 49 -102 4 -19 9 -39 10 -45 12 -44 16 -92 19 -245 2 -122 8 -187
18 -216 19 -51 39 -84 51 -84 5 0 17 -7 26 -15 21 -19 110 -51 165 -59 39 -7
167 -15 290 -20 34 -1 66 3 75 10 8 6 40 20 70 31 60 22 138 24 245 4 33 -6
81 -12 108 -13 46 -3 47 -4 46 -33 -1 -16 3 -59 9 -95 6 -36 12 -108 13 -160
3 -173 16 -170 -126 -26 -69 70 -125 133 -125 141 0 7 -6 20 -14 28 -13 12
-23 11 -80 -6 l-65 -20 5 -106 c4 -93 16 -519 15 -546 -1 -83 -4 -94 -20 -86
-9 5 -36 32 -61 61 -25 28 -51 58 -58 65 -11 13 -112 183 -112 190 0 9 -74
123 -96 148 -24 27 -25 32 -13 52 14 22 56 76 92 118 10 12 34 53 53 93 32 65
35 74 22 96 -11 21 -17 24 -43 17 -23 -7 -39 -24 -65 -70 -19 -34 -46 -70 -59
-80 -13 -11 -21 -19 -18 -19 3 0 -13 -21 -36 -46 -107 -118 -183 -186 -224
-198 -19 -6 -23 -3 -24 16 0 13 -3 91 -5 173 -6 245 -7 250 -44 282 -18 14
-38 32 -44 39 -19 18 -38 1 -51 -43 -11 -38 -12 -885 -2 -928 3 -11 9 -42 13
-69 l7 -48 41 5 c30 4 50 15 73 41 31 34 35 47 36 121 0 48 -19 180 -28 195
-8 13 25 48 62 66 61 29 70 27 78 -14 4 -22 8 -95 5 -102 -1 -3 -2 -79 -3
-169 -2 -109 2 -173 10 -192 13 -31 19 -36 21 -16 1 15 10 74 16 103 2 12 7
45 11 75 9 77 24 131 42 152 19 20 43 23 43 4 0 -26 91 -165 147 -223 60 -64
144 -124 167 -120 24 3 84 49 99 76 17 28 19 77 5 86 -5 4 11 21 36 39 88 62
99 88 102 235 1 58 2 108 3 113 4 30 83 -39 112 -100 22 -46 23 -61 15 -229
-1 -33 1 -69 4 -79 6 -16 9 -13 19 16 7 18 15 45 17 58 3 14 9 32 15 40 10 16
5 -155 -5 -206 -3 -13 -1 -23 4 -23 8 0 15 23 25 85 11 66 17 85 26 85 5 0 8
-3 7 -7 -5 -27 67 -133 91 -133 18 0 75 31 88 49 7 9 22 46 34 83 23 74 12 67
139 98 91 23 95 23 108 -2 17 -32 23 -65 23 -120 -1 -71 15 -58 25 20 4 37 8
70 10 75 1 4 2 19 3 33 1 23 4 26 29 21 20 -4 34 1 54 20 41 39 113 37 202 -6
61 -29 71 -31 97 -21 36 15 86 71 95 106 8 30 -37 100 -111 177 -55 56 -73 55
-148 -4 -33 -26 -81 -48 -155 -73 -166 -54 -180 -57 -186 -38 -10 33 3 276 19
352 3 14 8 40 11 59 3 18 8 42 10 52 2 11 6 27 8 36 4 20 13 88 21 161 3 26 8
66 11 90 3 24 2 57 -1 74 -6 28 -10 30 -38 24 -74 -15 -126 -99 -129 -210 -2
-42 -5 -76 -8 -76 -3 0 -5 -12 -6 -27 -1 -46 -11 -119 -16 -129 -4 -7 -17 -74
-23 -119 -1 -5 -5 -32 -10 -60 -5 -27 -9 -59 -11 -70 -1 -11 -3 -20 -4 -20 0
0 -3 -33 -5 -74 -5 -78 -9 -91 -25 -75 -10 10 -14 41 -25 194 -3 47 -8 92 -10
100 -2 8 -7 47 -10 85 -3 39 -8 90 -10 115 -3 25 -7 79 -10 120 -10 139 -16
189 -31 247 -16 63 -147 476 -169 533 -7 19 -14 40 -15 45 -3 13 1 -1 -70 225
-34 107 -64 202 -67 210 -4 8 -7 17 -8 20 0 3 -16 52 -35 110 -19 58 -35 107
-35 110 -1 3 -4 12 -7 20 -3 8 -15 44 -26 80 -11 36 -43 137 -72 225 -29 88
-53 165 -54 170 -4 17 -78 249 -86 270 -5 11 -30 88 -55 170 -26 83 -49 157
-53 165 -3 8 -6 17 -7 20 -1 3 -4 12 -7 20 -3 8 -12 38 -21 65 -20 65 -179
559 -209 650 -12 39 -23 72 -23 75 -1 6 -109 344 -130 405 -7 22 -48 148 -90
280 -142 445 -154 475 -208 529 -66 66 -157 116 -282 157 -98 31 -118 37 -160
45 -22 4 -44 8 -50 10 -14 3 -83 13 -135 19 -25 3 -91 8 -148 10 -56 2 -106 7
-111 9 -4 3 -10 3 -13 1z"/>
<path d="M3586 1260 c-37 -12 -66 -38 -82 -77 -17 -40 -9 -64 46 -137 38 -50
46 -68 55 -121 10 -62 39 -223 50 -275 3 -14 8 -41 11 -60 4 -19 11 -43 16
-53 16 -31 11 -106 -9 -134 -44 -63 -49 -74 -45 -103 4 -30 4 -30 61 -25 64 5
157 24 191 38 19 7 92 27 102 27 5 0 6 -15 3 -33 -23 -149 -27 -288 -8 -294 5
-2 10 2 10 9 1 7 9 49 18 93 18 88 19 92 30 183 7 65 19 86 30 52 10 -31 33
-24 54 17 10 21 49 70 85 108 37 39 86 90 110 115 59 62 84 102 100 153 16 53
19 270 5 342 -5 28 -11 61 -14 73 -4 25 -35 56 -75 77 -40 20 -98 27 -205 25
-265 -5 -443 -4 -475 2 -19 3 -48 2 -64 -2z"/>
</g>
</svg>
