<?xml version="1.0" encoding="utf-8"?>
<!-- Generator: Adobe Illustrator 15.1.0, SVG Export Plug-In . SVG Version: 6.00 Build 0)  -->
<!DOCTYPE svg PUBLIC "-//W3C//DTD SVG 1.1//EN" "http://www.w3.org/Graphics/SVG/1.1/DTD/svg11.dtd">
<svg version="1.1" id="Vrstva_1" xmlns="http://www.w3.org/2000/svg" xmlns:xlink="http://www.w3.org/1999/xlink" x="0px" y="0px"
	 width="276.906px" height="85.668px" viewBox="0 0 276.906 85.668" enable-background="new 0 0 276.906 85.668"
	 xml:space="preserve">
<g>
	<path fill="#CD1316" d="M17.148,23.535H9.107v11.179h8.041V23.535L17.148,23.535z M15.121,32.688h-3.987v-7.125h3.987V32.688
		L15.121,32.688z"/>
	<path fill="#CD1316" d="M39.955,77.688c-1.356,0-2.867-0.735-4.524-1.432c-1.93-0.81-4.02-1.597-6.221-1.597
		c-2.202,0-4.293,0.787-6.221,1.597c-1.657,0.696-3.168,1.432-4.525,1.432c-1.312,0-2.458-0.722-3.751-1.395
		c-1.595-0.828-3.354-1.634-5.607-1.634v2.132c2.273,0,3.928,1.041,5.485,1.844c1.288,0.664,2.525,1.185,3.873,1.185
		c1.304,0,2.744-0.506,4.283-1.148c1.97-0.82,4.138-1.88,6.463-1.88c2.325,0,4.492,1.06,6.461,1.88
		c1.54,0.643,2.98,1.148,4.284,1.148c1.348,0,2.585-0.521,3.873-1.185c1.558-0.803,3.213-1.844,5.486-1.844V74.66
		c-2.252,0-4.013,0.806-5.607,1.634C42.413,76.967,41.266,77.688,39.955,77.688"/>
	<path fill="#CD1316" d="M29.209,80.508c-2.201,0-4.291,0.786-6.221,1.598c-1.656,0.695-3.168,1.431-4.524,1.431v2.132
		c1.304,0,2.744-0.506,4.283-1.147c1.97-0.822,4.137-1.88,6.462-1.88c2.326,0,4.493,1.058,6.463,1.88
		c1.539,0.642,2.979,1.147,4.283,1.147v-2.132c-1.357,0-2.868-0.735-4.525-1.431C33.501,81.294,31.411,80.508,29.209,80.508"/>
	<path fill="#CD1316" d="M54.399,37.669V20.58h3.214V10.451h-2.536L50.645,0h-10.68l-4.432,10.451h-2.562V20.58h3.213v17.089h-4.02
		v5.034h-5.91v-5.034h-4.02V20.58h3.214V10.451h-2.536L18.481,0H7.801L3.369,10.451H0.807V20.58H4.02v17.089H0v36.208
		c0.994-0.176,2.012-0.583,3.073-1.065c1.788-0.814,3.729-1.866,6.033-1.866c2.273,0,3.928,1.041,5.485,1.843
		c1.288,0.664,2.525,1.185,3.873,1.185c1.304,0,2.744-0.507,4.283-1.148c1.97-0.821,4.137-1.879,6.463-1.879
		c2.325,0,4.492,1.058,6.461,1.879c1.54,0.642,2.98,1.148,4.284,1.148c1.348,0,2.585-0.521,3.873-1.185
		c1.33-0.685,2.731-1.544,4.526-1.781h1.959c2.566,0.32,4.692,1.784,6.685,2.489c0.48,0.169,0.952,0.302,1.421,0.384v-36.21H54.399
		L54.399,37.669z M41.376,2.132h7.857l3.528,8.319h-2.315v2.963H40.137v-2.963h-2.288L41.376,2.132L41.376,2.132z M35.103,18.448
		v-5.866h2.902v2.964h14.573v-2.964h2.902v5.866H35.103L35.103,18.448z M38.316,37.669V20.58h13.95v17.089h-4.02v5.034h-5.909
		v-5.034H38.316L38.316,37.669z M9.212,2.132h7.856l3.529,8.319h-2.316v2.963H7.972v-2.963H5.685L9.212,2.132L9.212,2.132z
		 M2.938,18.448v-5.866h2.903v2.964h14.573v-2.964h2.902v5.866H2.938L2.938,18.448z M6.152,37.669V20.58h13.95v17.089h-4.021v5.034
		h-5.908v-5.034H6.152L6.152,37.669z M17.384,71.686c-0.892-0.248-1.744-0.756-2.672-1.238c-1.329-0.692-2.775-1.368-4.527-1.572
		V51.924c1.78,0.272,3.441,1.22,4.725,2.696c1.591,1.829,2.474,4.314,2.474,6.901V71.686L17.384,71.686z M38.886,61.522V71.71
		c-1.069-0.242-2.221-0.783-3.455-1.301c-1.93-0.81-4.02-1.597-6.221-1.597c-2.202,0-4.293,0.787-6.221,1.597
		c-1.235,0.519-2.39,1.06-3.459,1.302V61.521c0-0.988,0.151-1.959,0.44-2.885h5.187v3.265h2.132v-3.265h3.841v3.265h2.132v-3.265
		h5.191c0.267,0.856,0.418,1.765,0.434,2.704C38.887,61.402,38.887,61.463,38.886,61.522 M20.89,56.573
		c0.407-0.685,0.902-1.322,1.475-1.896c0.816-0.815,1.764-1.472,2.792-1.945v3.842H20.89L20.89,56.573z M27.289,56.573v-4.538
		c0.628-0.128,1.27-0.193,1.921-0.193h0.005c0.656,0,1.296,0.065,1.915,0.189v4.542H27.289L27.289,56.573z M33.262,56.573v-3.847
		c1.783,0.821,3.273,2.171,4.271,3.847H33.262L33.262,56.573z M48.235,68.875c-1.751,0.204-3.197,0.88-4.528,1.572
		c-0.929,0.482-1.782,0.991-2.675,1.239V61.522c0-2.604,0.885-5.105,2.476-6.945c1.284-1.488,2.946-2.439,4.727-2.714V68.875
		L48.235,68.875z M56.287,70.908c-1.776-0.786-3.699-1.778-5.907-2.033V49.634h-1.078c-2.78,0-5.453,1.265-7.419,3.54
		c-0.83,0.961-1.505,2.071-2.002,3.275c-1.895-3.984-5.959-6.74-10.666-6.74H29.21c-3.133,0-6.138,1.245-8.353,3.46
		c-0.969,0.97-1.751,2.088-2.326,3.304c-0.496-1.193-1.169-2.293-1.997-3.246c-1.966-2.262-4.637-3.518-7.416-3.518H8.041v19.163
		c-1.787,0.2-3.391,0.867-4.881,1.552c-0.351,0.16-0.693,0.323-1.029,0.479V39.801h5.91v5.034h10.172v-5.034h5.91v5.034h10.173
		v-5.034h5.909v5.034h10.174v-5.034h5.908V70.908L56.287,70.908z"/>
	<path fill="#CD1316" d="M49.312,23.535h-8.041v11.179h8.041V23.535L49.312,23.535z M47.285,32.688h-3.987v-7.125h3.987V32.688
		L47.285,32.688z"/>
	<path fill="#3C3C3B" d="M77.17,22.251h2.705c2.006,0,2.659,0.771,2.659,2.752v2.752c0,1.912-0.653,2.658-2.659,2.658H77.17V22.251
		L77.17,22.251z M72.739,18.52v15.625h7.136c4.548,0,7.184-1.773,7.184-6.39v-2.752c0-4.781-2.682-6.483-7.184-6.483H72.739
		L72.739,18.52z"/>
	<polygon fill="#3C3C3B" points="90.523,18.52 94.908,34.145 101.834,34.145 106.219,18.52 102.09,18.52 98.966,29.667 
		98.103,29.667 94.978,18.52 90.523,18.52 	"/>
	<path fill="#3C3C3B" d="M117.089,14.228c0.56,0,0.933,0.28,0.933,0.746c0,0.467-0.35,0.747-0.933,0.747
		c-0.559,0-0.932-0.28-0.932-0.747C116.157,14.508,116.53,14.228,117.089,14.228 M116.996,12.526c-2.052,0-3.125,1.096-3.125,2.448
		c0,1.353,1.073,2.45,3.125,2.45h0.163c2.076,0,3.126-1.097,3.126-2.45c0-1.352-1.05-2.448-3.126-2.448H116.996L116.996,12.526z
		 M109.999,18.52v9.445c0,4.338,2.636,6.413,6.88,6.413h0.444c4.221,0,6.857-2.075,6.857-6.413V18.52h-4.478v9.445
		c0,1.563-0.607,2.426-2.379,2.426h-0.444c-1.795,0-2.402-0.863-2.402-2.426V18.52H109.999L109.999,18.52z"/>
	<path fill="#3C3C3B" d="M133.487,22.041h3.196c0.956,0,1.609,0.49,1.609,1.423v0.396c0,0.98-0.653,1.446-1.609,1.446h-3.196V22.041
		L133.487,22.041z M129.01,18.52v15.625h4.477v-5.271h2.682l2.402,5.271h4.782l-2.729-6.04c1.352-0.793,2.098-2.192,2.098-4.035
		v-0.839c0-2.985-1.959-4.711-5.364-4.711H129.01L129.01,18.52z"/>
	<polygon fill="#3C3C3B" points="155.41,18.52 155.41,34.145 159.889,34.145 159.889,28.012 160.609,28.012 164.67,34.145 
		169.846,34.145 164.645,26.309 164.645,25.517 169.566,18.52 164.645,18.52 160.564,24.303 159.889,24.303 159.889,18.52 
		155.41,18.52 	"/>
	<path fill="#3C3C3B" d="M178.408,22.041h3.193c0.957,0,1.611,0.49,1.611,1.423v0.396c0,0.98-0.654,1.446-1.611,1.446h-3.193V22.041
		L178.408,22.041z M173.93,18.52v15.625h4.479v-5.271h2.684l2.4,5.271h4.781l-2.729-6.04c1.352-0.793,2.1-2.192,2.1-4.035v-0.839
		c0-2.985-1.961-4.711-5.365-4.711H173.93L173.93,18.52z"/>
	<path fill="#3C3C3B" d="M200.727,13.855l-2.588,3.032h3.754l3.523-3.032H200.727L200.727,13.855z M199.561,22.647h0.84l1.516,5.062
		h-3.871L199.561,22.647L199.561,22.647z M196.715,18.52l-4.732,15.625h4.104l0.84-2.799h6.109l0.842,2.799h4.338l-4.736-15.625
		H196.715L196.715,18.52z"/>
	<polygon fill="#3C3C3B" points="212.227,18.52 212.227,34.145 223.701,34.145 223.701,30.414 216.705,30.414 216.705,18.52 
		212.227,18.52 	"/>
	<path fill="#3C3C3B" d="M237.057,28.035c0,1.539-0.932,2.378-2.727,2.378h-0.467c-1.865,0-2.729-0.839-2.729-2.378v-3.428
		c0-1.493,0.863-2.356,2.729-2.356h0.467c1.795,0,2.727,0.863,2.727,2.356V28.035L237.057,28.035z M233.863,18.287
		c-4.199,0-7.254,2.145-7.254,6.133v3.918c0,3.941,3.055,6.04,7.254,6.04h0.514c4.174,0,7.205-2.099,7.205-6.04V24.42
		c0-3.988-3.031-6.133-7.205-6.133H233.863L233.863,18.287z"/>
	<polygon fill="#3C3C3B" points="244.93,18.52 249.314,34.145 256.24,34.145 260.625,18.52 256.498,18.52 253.373,29.667 
		252.51,29.667 249.385,18.52 244.93,18.52 	"/>
	<path fill="#3C3C3B" d="M271.311,13.855l-2.59,3.032h3.756l3.521-3.032H271.311L271.311,13.855z M264.641,18.52v15.625h12.266
		V30.46h-7.789v-2.542h6.646V24.42h-6.646v-2.216h7.674v-3.684L264.641,18.52L264.641,18.52z"/>
	<polygon fill="#3C3C3B" points="72.739,45.729 72.739,61.354 76.751,61.354 76.751,52.071 77.263,52.071 82.394,61.354 
		87.991,61.354 87.991,45.729 83.98,45.729 83.98,55.01 83.49,55.01 78.336,45.729 72.739,45.729 	"/>
	<path fill="#3C3C3B" d="M98.912,49.856h0.839l1.516,5.061h-3.871L98.912,49.856L98.912,49.856z M96.067,45.729l-4.734,15.626h4.104
		l0.839-2.799h6.111l0.839,2.799h4.339l-4.736-15.626H96.067L96.067,45.729z"/>
	<path fill="#3C3C3B" d="M115.336,49.46h2.705c2.006,0,2.659,0.77,2.659,2.751v2.753c0,1.912-0.653,2.658-2.659,2.658h-2.705V49.46
		L115.336,49.46z M110.905,45.729v15.625h7.136c4.548,0,7.184-1.773,7.184-6.391v-2.753c0-4.779-2.683-6.481-7.184-6.481H110.905
		L110.905,45.729z"/>
	<polygon fill="#3C3C3B" points="137.911,45.729 137.911,61.354 149.387,61.354 149.387,57.622 142.389,57.622 142.389,45.729 
		137.911,45.729 	"/>
	<path fill="#3C3C3B" d="M159.906,49.856h0.84l1.516,5.061h-3.871L159.906,49.856L159.906,49.856z M157.061,45.729l-4.734,15.626
		h4.105l0.84-2.799h6.109l0.84,2.799h4.34l-4.736-15.626H157.061L157.061,45.729z"/>
	<path fill="#3C3C3B" d="M176.957,54.94h3.5c1.002,0,1.631,0.396,1.631,1.307v0.419c0,0.934-0.629,1.353-1.631,1.353h-3.5V54.94
		L176.957,54.94z M176.957,49.063h3.266c0.91,0,1.516,0.35,1.516,1.189v0.419c0,0.863-0.605,1.213-1.516,1.213h-3.266V49.063
		L176.957,49.063z M172.574,45.729v15.626h8.605c3.381,0,5.34-1.423,5.34-4.105V56.62c0-1.517-0.676-2.565-2.006-3.219v-0.49
		c1.236-0.722,1.68-1.725,1.68-2.845v-0.489c0-2.823-2.193-3.849-5.295-3.849H172.574L172.574,45.729z"/>
	<polygon fill="#3C3C3B" points="191.93,45.729 191.93,61.354 204.197,61.354 204.197,57.668 196.408,57.668 196.408,55.127 
		203.055,55.127 203.055,51.629 196.408,51.629 196.408,49.413 204.082,49.413 204.082,45.729 191.93,45.729 	"/>
	<polygon fill="#3C3C3B" points="208.91,45.729 208.91,61.354 213.086,61.354 213.086,50.719 213.646,50.719 216.049,57.764 
		220.781,57.764 223.207,50.719 223.791,50.719 223.791,61.354 228.199,61.354 228.199,45.729 221.459,45.729 219.057,52.654 
		218.449,52.654 216.094,45.729 208.91,45.729 	"/>
</g>
</svg>
