<?xml version="1.0" encoding="UTF-8" standalone="no"?>
<!-- Generator: Adobe Illustrator 19.0.0, SVG Export Plug-In . SVG Version: 6.00 Build 0)  -->

<svg
   version="1.1"
   id="layer"
   x="0px"
   y="0px"
   viewBox="-153 -46 101.10272 47.998938"
   xml:space="preserve"
   sodipodi:docname="mamt-ministerstvo-skolstvi-mladeze-a-telovychovy-vector-logo.svg"
   width="101.10271"
   height="47.99894"
   inkscape:version="1.2.1 (9c6d41e410, 2022-07-14)"
   xmlns:inkscape="http://www.inkscape.org/namespaces/inkscape"
   xmlns:sodipodi="http://sodipodi.sourceforge.net/DTD/sodipodi-0.dtd"
   xmlns="http://www.w3.org/2000/svg"
   xmlns:svg="http://www.w3.org/2000/svg"><defs
   id="defs109" /><sodipodi:namedview
   id="namedview107"
   pagecolor="#ffffff"
   bordercolor="#000000"
   borderopacity="0.25"
   inkscape:showpageshadow="2"
   inkscape:pageopacity="0.0"
   inkscape:pagecheckerboard="0"
   inkscape:deskcolor="#d1d1d1"
   showgrid="false"
   inkscape:zoom="3.5311958"
   inkscape:cx="196.95877"
   inkscape:cy="91.895215"
   inkscape:window-width="2400"
   inkscape:window-height="1271"
   inkscape:window-x="2391"
   inkscape:window-y="-9"
   inkscape:window-maximized="1"
   inkscape:current-layer="layer" />
<style
   type="text/css"
   id="style2">
	.st0{fill:#3B8E9A;}
	.st1{fill:#888888;}
</style>
<path
   class="st0"
   d="M -93.696293,-43.034815 -88.709391,-46 h -1.583678 l -4.565712,2.055412 L -99.525578,-46 h -1.482592 l 5.020597,2.965185 z m 2.426061,16.022109 c 2.173346,-0.707601 3.807567,-1.920631 4.026586,-3.639091 0,-2.42606 -2.830404,-3.403223 -5.627112,-3.976043 -4.060283,-0.808687 -6.94123,-1.482593 -7.396122,-3.234748 -0.0842,-0.252715 -0.0842,-0.370648 -0.0842,-0.555972 0.0842,-1.886937 2.746163,-3.066272 5.189072,-3.066272 2.476603,0 4.060282,0.320106 5.627113,1.802698 l 1.347811,-0.438038 c -1.752155,-1.566831 -4.14452,-1.988022 -6.974924,-1.988022 -2.35867,0 -4.380388,0.404343 -5.829282,1.111944 v -4.986902 h -3.58855 l -9.16512,11.894436 h -0.0842 l -9.33359,-11.894436 h -3.53801 v 14.539516 h 1.70161 v -12.719971 l 10.26022,12.972686 h -3.13366 v 14.556364 h 1.44889 v -12.719971 l 10.395,13.124315 h 0.0505 l 10.479239,-13.309639 v 12.905295 h 3.066271 v -9.687395 h 5.424942 v 13.579201 h 3.150509 v -13.579201 h 6.536886 v -0.690754 z m -1.179336,-0.825534 v -3.352681 h -3.588548 l -2.93149,3.807567 c -1.213034,-0.320105 -2.308124,-0.876077 -3.133664,-1.701612 l -1.48259,0.555973 c 0.96031,0.92662 2.39236,1.533135 4.060282,1.886936 l -5.660812,7.345572 h -0.11793 l -9.23251,-11.759655 10.44554,-13.275943 v 12.888447 h 3.06627 v -3.538005 c 1.617376,0.657058 3.841265,1.061401 6.098849,1.583678 3.335834,0.724449 4.329844,1.988022 4.329844,3.2179 0.01685,0.926621 -0.657058,1.769003 -1.853241,2.341823"
   id="path4"
   style="stroke-width:0.168476" />
<polygon
   class="st1"
   points="-113.6,380.1 -116.8,380.1 -128.7,355.2 -128.4,380.1 -131.1,380.1 -131.1,352.8 -126.7,352.8 -115.2,377.6 -103.5,352.8 -99.5,352.8 -99.5,380.1 -102.2,380.1 -102.1,355.2 "
   id="polygon6"
   transform="matrix(0.16847644,0,0,0.16847644,-130.91274,-68.508452)" />
<rect
   x="-145.92398"
   y="-9.0699673"
   class="st1"
   width="0.45488638"
   height="4.5994062"
   id="rect8"
   style="stroke-width:0.168476" />
<polygon
   class="st1"
   points="-73.3,380.1 -76,380.1 -76,352.8 -72.5,352.8 -53.4,377.3 -53.4,352.8 -50.7,352.8 -50.7,380.1 -54.4,380.1 -73.3,355.6 "
   id="polygon10"
   transform="matrix(0.16847644,0,0,0.16847644,-130.91274,-68.508452)" />
<rect
   x="-137.70235"
   y="-9.0699673"
   class="st1"
   width="0.45488638"
   height="4.5994062"
   id="rect12"
   style="stroke-width:0.168476" />
<g
   id="g16"
   transform="matrix(0.16847644,0,0,0.16847644,-130.91274,-68.508452)">
	<path
   class="st1"
   d="m -25.5,371.1 v 0.1 c 0,4.1 3.4,6.9 8.6,6.9 5.3,0 8.5,-2.3 8.5,-5.6 0,-3.1 -2.2,-3.9 -6.8,-4.7 l -5.8,-1 c -4.3,-0.8 -6.5,-3 -6.5,-6.8 0,-4.7 3.9,-7.9 10.4,-7.9 6.7,0 10.6,3.2 10.7,8.4 H -9 c -0.3,-3.8 -3.1,-5.9 -7.9,-5.9 -4.8,0 -7.7,2.1 -7.7,5.3 0,2.9 2.2,3.8 6.8,4.6 l 5.2,0.9 c 4.9,0.9 7.2,3 7.2,7 0,5.2 -4,8.4 -11.1,8.4 -7.3,0 -11.7,-3.6 -11.7,-9.3 v -0.4 z"
   id="path14" />
</g>
<polygon
   class="st1"
   points="11.2,355.3 0.6,355.3 0.6,352.8 24.4,352.8 24.4,355.3 13.9,355.3 13.9,380.1 11.2,380.1 "
   id="polygon18"
   transform="matrix(0.16847644,0,0,0.16847644,-130.91274,-68.508452)" />
<polygon
   class="st1"
   points="34.2,377.5 52.5,377.5 52.5,380.1 31.5,380.1 31.5,352.8 52.5,352.8 52.5,355.4 34.2,355.4 34.2,364.9 51.1,364.9 51.1,367.5 34.2,367.5 "
   id="polygon20"
   transform="matrix(0.16847644,0,0,0.16847644,-130.91274,-68.508452)" />
<g
   id="g26"
   transform="matrix(0.16847644,0,0,0.16847644,-130.91274,-68.508452)">
	<path
   class="st1"
   d="m 61.2,352.8 h 13.1 c 6.5,0 9.8,2.5 9.8,7.3 0,3.6 -1.4,5.7 -4.7,6.8 3.1,0.5 3.8,1.9 4.2,5.2 0.4,3.6 0.2,6.4 1.3,8 h -3.2 c -0.8,-2.5 -0.6,-5.2 -0.9,-8 -0.3,-2.8 -1.9,-3.7 -5.3,-3.7 H 64 v 11.7 h -2.7 v -27.3 z m 2.8,2.5 v 10.5 h 10 c 5,0 7.3,-1.4 7.3,-5.2 0,-4.1 -2.4,-5.2 -7.7,-5.2 H 64 Z"
   id="path22" />
	<path
   class="st1"
   d="m 95.4,371.1 v 0.1 c 0,4.1 3.4,6.9 8.7,6.9 5.3,0 8.5,-2.3 8.5,-5.6 0,-3.1 -2.2,-3.9 -6.8,-4.7 l -5.8,-1 c -4.3,-0.8 -6.5,-3 -6.5,-6.8 0,-4.7 3.9,-7.9 10.4,-7.9 6.7,0 10.6,3.2 10.7,8.4 h -2.7 c -0.3,-3.8 -3.1,-5.9 -7.9,-5.9 -4.8,0 -7.7,2.1 -7.7,5.3 0,2.9 2.2,3.8 6.8,4.6 l 5.2,0.9 c 5,0.9 7.2,3 7.2,7 0,5.2 -4,8.4 -11.1,8.4 -7.3,0 -11.7,-3.6 -11.7,-9.3 v -0.4 z"
   id="path24" />
</g>
<polygon
   class="st1"
   points="132,355.3 121.5,355.3 121.5,352.8 145.3,352.8 145.3,355.3 134.7,355.3 134.7,380.1 132,380.1 "
   id="polygon28"
   transform="matrix(0.16847644,0,0,0.16847644,-130.91274,-68.508452)" />
<polygon
   class="st1"
   points="152.3,352.8 163.3,377.8 174.2,352.8 177.2,352.8 165,380.1 161.5,380.1 149.3,352.8 "
   id="polygon30"
   transform="matrix(0.16847644,0,0,0.16847644,-130.91274,-68.508452)" />
<g
   id="g36"
   transform="matrix(0.16847644,0,0,0.16847644,-130.91274,-68.508452)">
	<path
   class="st1"
   d="m 196.7,380.8 c -9,0 -14.3,-5.5 -14.3,-14.4 0,-8.9 5.4,-14.4 14.3,-14.4 9,0 14.4,5.5 14.4,14.4 -0.1,8.9 -5.5,14.4 -14.4,14.4 m 11.5,-14.3 c 0,-7.3 -4.3,-11.7 -11.6,-11.7 -7.2,0 -11.6,4.4 -11.6,11.7 0,7.3 4.3,11.7 11.6,11.7 7.3,0 11.6,-4.4 11.6,-11.7"
   id="path32" />
	<path
   class="st1"
   d="m 237.7,371.1 v 0.1 c 0,4.1 3.4,6.9 8.6,6.9 5.3,0 8.5,-2.3 8.5,-5.6 0,-3.1 -2.2,-3.9 -6.8,-4.7 l -5.8,-1 c -4.3,-0.8 -6.5,-3 -6.5,-6.8 0,-4.7 3.8,-7.9 10.4,-7.9 6.6,0 10.6,3.2 10.7,8.4 h -2.7 c -0.4,-3.8 -3.1,-5.9 -7.9,-5.9 -4.8,0 -7.7,2.1 -7.7,5.3 0,2.9 2.2,3.8 6.8,4.6 l 5.2,0.9 c 5,0.9 7.2,3 7.2,7 0,5.2 -4,8.4 -11.1,8.4 -7.3,0 -11.7,-3.6 -11.7,-9.3 v -0.4 z M 250,344.5 h 2.9 l -5.3,5.6 h -3.1 l -5.3,-5.6 h 2.9 l 3.9,4 z"
   id="path34" />
</g>
<polygon
   class="st1"
   points="275.4,366 269.6,371.1 269.6,380.1 266.9,380.1 266.9,352.8 269.6,352.8 269.6,367.7 286.5,352.8 290.3,352.8 277.4,364.2 290.3,380.1 286.8,380.1 "
   id="polygon38"
   transform="matrix(0.16847644,0,0,0.16847644,-130.91274,-68.508452)" />
<g
   id="g42"
   transform="matrix(0.16847644,0,0,0.16847644,-130.91274,-68.508452)">
	<path
   class="st1"
   d="m 309.2,380.8 c -9,0 -14.3,-5.5 -14.3,-14.4 0,-8.9 5.4,-14.4 14.3,-14.4 9,0 14.4,5.5 14.4,14.4 0,8.9 -5.4,14.4 -14.4,14.4 m 11.6,-14.3 c 0,-7.3 -4.4,-11.7 -11.6,-11.7 -7.2,0 -11.6,4.4 -11.6,11.7 0,7.3 4.3,11.7 11.6,11.7 7.2,0 11.6,-4.4 11.6,-11.7"
   id="path40" />
</g>
<polygon
   class="st1"
   points="335.2,377.5 352.4,377.5 352.4,380.1 332.5,380.1 332.5,352.8 335.2,352.8 "
   id="polygon44"
   transform="matrix(0.16847644,0,0,0.16847644,-130.91274,-68.508452)" />
<g
   id="g48"
   transform="matrix(0.16847644,0,0,0.16847644,-130.91274,-68.508452)">
	<path
   class="st1"
   d="m 362.2,371.1 v 0.1 c 0,4.1 3.4,6.9 8.7,6.9 5.3,0 8.5,-2.3 8.5,-5.6 0,-3.1 -2.2,-3.9 -6.8,-4.7 l -5.8,-1 c -4.4,-0.8 -6.5,-3 -6.5,-6.8 0,-4.7 3.8,-7.9 10.4,-7.9 6.7,0 10.6,3.2 10.7,8.4 h -2.7 c -0.3,-3.8 -3.1,-5.9 -7.9,-5.9 -4.8,0 -7.7,2.1 -7.7,5.3 0,2.9 2.2,3.8 6.8,4.6 l 5.2,0.9 c 5,0.9 7.2,3 7.2,7 0,5.2 -4,8.4 -11.1,8.4 -7.3,0 -11.7,-3.6 -11.7,-9.3 v -0.4 z"
   id="path46" />
</g>
<polygon
   class="st1"
   points="398.8,355.3 388.2,355.3 388.2,352.8 412,352.8 412,355.3 401.5,355.3 401.5,380.1 398.8,380.1 "
   id="polygon50"
   transform="matrix(0.16847644,0,0,0.16847644,-130.91274,-68.508452)" />
<polygon
   class="st1"
   points="419.1,352.8 430,377.8 441,352.8 444,352.8 431.7,380.1 428.3,380.1 416.1,352.8 "
   id="polygon52"
   transform="matrix(0.16847644,0,0,0.16847644,-130.91274,-68.508452)" />
<path
   class="st1"
   d="m -54.862473,-9.0699651 h 0.454884 v 4.5994068 h -0.454884 z m 0.589664,-1.3983539 h 0.572822 l -0.758144,0.9434677 h -0.37065 z"
   id="path54"
   style="stroke-width:0.168476" />
<g
   id="g58"
   transform="matrix(0.16847644,0,0,0.16847644,-130.91274,-68.508452)">
	<path
   class="st1"
   d="m 465.9,376.8 h 3.1 v 4.4 c 0,2.6 -0.7,4 -3.1,4.8 v -1.7 c 1,-0.5 1.4,-1.3 1.4,-2.5 v -1.6 h -1.4 z"
   id="path56" />
</g>
<polygon
   class="st1"
   points="-70.4,417.9 -73,417.9 -82.9,397.2 -82.7,417.9 -84.9,417.9 -84.9,395.2 -81.3,395.2 -71.7,415.8 -62,395.2 -58.7,395.2 -58.7,417.9 -60.9,417.9 -60.8,397.2 "
   id="polygon60"
   transform="matrix(0.16847644,0,0,0.16847644,-130.91274,-68.508452)" />
<polygon
   class="st1"
   points="-48.6,415.7 -34.3,415.7 -34.3,417.9 -50.8,417.9 -50.8,395.2 -48.6,395.2 "
   id="polygon62"
   transform="matrix(0.16847644,0,0,0.16847644,-130.91274,-68.508452)" />
<path
   class="st1"
   d="m -134.31596,-1.9265639 h 0.43804 l 1.7353,3.824415 h -0.38749 l -0.53913,-1.17933506 h -2.0891 l -0.53913,1.17933506 h -0.3875 z m 1.07825,2.2744317 -0.87608,-1.9543265 -0.87608,1.9543265 z m -0.57282,-3.4369191 h 0.48858 l -0.62337,0.7749915 h -0.3201 z"
   id="path64"
   style="stroke-width:0.168476" />
<g
   id="g68"
   transform="matrix(0.16847644,0,0,0.16847644,-130.91274,-68.508452)">
	<path
   class="st1"
   d="m 15.7,397.2 c 2.5,1.9 3.6,5 3.6,9.3 0,4.3 -1.1,7.3 -3.6,9.3 -2.3,1.8 -5.2,2 -9.3,2 h -8.3 v -22.7 h 8.3 c 4.1,0.1 7,0.4 9.3,2.1 m -15.3,0 v 18.4 h 6 c 3.2,0 5.6,-0.2 7.4,-1.4 2.2,-1.5 3.2,-4 3.2,-7.9 0,-3.8 -1,-6.3 -3.2,-7.7 -1.9,-1.3 -4.4,-1.4 -7.9,-1.4 z"
   id="path66" />
</g>
<polygon
   class="st1"
   points="28.4,415.7 43.5,415.7 43.5,417.9 26.1,417.9 26.1,395.2 43.5,395.2 43.5,397.3 28.4,397.3 28.4,405.3 42.3,405.3 42.3,407.4 28.4,407.4 "
   id="polygon70"
   transform="matrix(0.16847644,0,0,0.16847644,-130.91274,-68.508452)" />
<path
   class="st1"
   d="m -122.74163,1.5103552 2.81355,-3.0831185 h -2.67877 v -0.3538006 h 3.20105 v 0.3538006 l -2.8641,3.0831185 h 2.8641 v 0.3706482 h -3.33583 z m 2.42606,-4.5994065 h 0.40434 l -0.74129,0.7749915 h -0.43804 l -0.7413,-0.7749915 h 0.40434 l 0.53913,0.5728199 z"
   id="path72"
   style="stroke-width:0.168476" />
<polygon
   class="st1"
   points="76.8,415.7 91.9,415.7 91.9,417.9 74.5,417.9 74.5,395.2 91.9,395.2 91.9,397.3 76.8,397.3 76.8,405.3 90.8,405.3 90.8,407.4 76.8,407.4 "
   id="polygon74"
   transform="matrix(0.16847644,0,0,0.16847644,-130.91274,-68.508452)" />
<path
   class="st1"
   d="m -110.8135,-1.9265639 h 0.43804 l 1.73531,3.824415 h -0.3875 l -0.53912,-1.17933506 h -2.08911 l -0.53913,1.17933506 h -0.38749 z m 1.07825,2.2744317 -0.87608,-1.9543265 -0.87608,1.9543265 z"
   id="path76"
   style="stroke-width:0.168476" />
<polygon
   class="st1"
   points="156.5,397.3 147.7,397.3 147.7,395.2 167.5,395.2 167.5,397.3 158.7,397.3 158.7,417.9 156.5,417.9 "
   id="polygon78"
   transform="matrix(0.16847644,0,0,0.16847644,-130.91274,-68.508452)" />
<path
   class="st1"
   d="m -101.81686,-1.9265639 h 2.931493 v 0.3538006 h -2.543993 v 1.33096359 h 2.358668 v 0.35380057 h -2.358668 V 1.5103552 h 2.56084 v 0.3538005 h -2.93149 v -3.7907196 z m 2.038567,-1.1624874 h 0.404344 l -0.741301,0.7749915 h -0.43804 l -0.74129,-0.7749915 h 0.40434 l 0.53913,0.5728199 z"
   id="path80"
   style="stroke-width:0.168476" />
<polygon
   class="st1"
   points="199.1,415.7 213.3,415.7 213.3,417.9 196.8,417.9 196.8,395.2 199.1,395.2 "
   id="polygon82"
   transform="matrix(0.16847644,0,0,0.16847644,-130.91274,-68.508452)" />
<g
   id="g86"
   transform="matrix(0.16847644,0,0,0.16847644,-130.91274,-68.508452)">
	<path
   class="st1"
   d="m 227.8,418.5 c -7.4,0 -11.9,-4.6 -11.9,-11.9 0,-7.4 4.5,-11.9 11.9,-11.9 7.4,0 11.9,4.6 11.9,11.9 0.1,7.3 -4.4,11.9 -11.9,11.9 m 9.6,-12 c 0,-6.1 -3.6,-9.7 -9.6,-9.7 -6,0 -9.6,3.6 -9.6,9.7 0,6.1 3.6,9.7 9.6,9.7 6,0.1 9.6,-3.6 9.6,-9.7"
   id="path84" />
</g>
<polygon
   class="st1"
   points="245.9,395.2 255,415.9 264.1,395.2 266.6,395.2 256.4,417.9 253.5,417.9 243.4,395.2 "
   id="polygon88"
   transform="matrix(0.16847644,0,0,0.16847644,-130.91274,-68.508452)" />
<path
   class="st1"
   d="m -83.840422,0.24678217 -1.651069,-2.17334607 h 0.488582 l 1.347811,1.87008848 1.36466,-1.87008848 h 0.471733 l -1.651068,2.17334607 V 1.8978511 h -0.387496 V 0.24678217 Z m 0.555972,-3.33583347 h 0.471735 l -0.623363,0.7749915 h -0.320105 z"
   id="path90"
   style="stroke-width:0.168476" />
<g
   id="g94"
   transform="matrix(0.16847644,0,0,0.16847644,-130.91274,-68.508452)">
	<path
   class="st1"
   d="m 307.7,396.8 c -5.9,0 -9.6,3.7 -9.6,9.7 0,6 3.6,9.7 9.1,9.7 4.6,0 8,-2.6 8.9,-6.9 h 2.4 c -1,5.6 -5.4,9.1 -11.3,9.1 -6.9,0 -11.5,-4.6 -11.5,-11.9 0,-7.4 4.5,-11.9 11.9,-11.9 5.9,0 9.8,3 10.5,8 H 316 c -0.9,-3.7 -3.8,-5.8 -8.3,-5.8"
   id="path92" />
</g>
<polygon
   class="st1"
   points="341.9,406.8 327.2,406.8 327.2,417.9 324.9,417.9 324.9,395.2 327.2,395.2 327.2,404.6 341.9,404.6 341.9,395.2 344.2,395.2 344.2,417.9 341.9,417.9 "
   id="polygon96"
   transform="matrix(0.16847644,0,0,0.16847644,-130.91274,-68.508452)" />
<g
   id="g100"
   transform="matrix(0.16847644,0,0,0.16847644,-130.91274,-68.508452)">
	<path
   class="st1"
   d="m 362.8,418.5 c -7.4,0 -11.9,-4.6 -11.9,-11.9 0,-7.4 4.4,-11.9 11.9,-11.9 7.4,0 11.9,4.6 11.9,11.9 0,7.3 -4.4,11.9 -11.9,11.9 m 9.6,-12 c 0,-6.1 -3.6,-9.7 -9.6,-9.7 -6,0 -9.6,3.6 -9.6,9.7 0,6.1 3.6,9.7 9.6,9.7 6,0.1 9.6,-3.6 9.6,-9.7"
   id="path98" />
</g>
<polygon
   class="st1"
   points="380.9,395.2 390,415.9 399.1,395.2 401.5,395.2 391.4,417.9 388.5,417.9 378.4,395.2 "
   id="polygon102"
   transform="matrix(0.16847644,0,0,0.16847644,-130.91274,-68.508452)" />
<polygon
   class="st1"
   points="414.3,417.9 414.3,408.1 404.6,395.2 407.5,395.2 415.5,406.3 423.6,395.2 426.4,395.2 416.6,408.1 416.6,417.9 "
   id="polygon104"
   transform="matrix(0.16847644,0,0,0.16847644,-130.91274,-68.508452)" />
</svg>
