<?xml version="1.0" encoding="UTF-8" standalone="no"?>
<!-- Generator: Adobe Illustrator 22.1.0, SVG Export Plug-In . SVG Version: 6.00 Build 0)  -->

<svg
   version="1.1"
   id="Layer_1"
   x="0px"
   y="0px"
   width="50"
   height="50"
   viewBox="0 0 50 50"
   xml:space="preserve"
   sodipodi:docname="1547046802.svg"
   inkscape:version="1.2.1 (9c6d41e410, 2022-07-14)"
   xmlns:inkscape="http://www.inkscape.org/namespaces/inkscape"
   xmlns:sodipodi="http://sodipodi.sourceforge.net/DTD/sodipodi-0.dtd"
   xmlns="http://www.w3.org/2000/svg"
   xmlns:svg="http://www.w3.org/2000/svg"><defs
   id="defs15179" /><sodipodi:namedview
   id="namedview15177"
   pagecolor="#ffffff"
   bordercolor="#000000"
   borderopacity="0.25"
   inkscape:showpageshadow="2"
   inkscape:pageopacity="0.0"
   inkscape:pagecheckerboard="0"
   inkscape:deskcolor="#d1d1d1"
   showgrid="false"
   inkscape:zoom="6.395388"
   inkscape:cx="7.2708646"
   inkscape:cy="43.859731"
   inkscape:window-width="1920"
   inkscape:window-height="1001"
   inkscape:window-x="-9"
   inkscape:window-y="-9"
   inkscape:window-maximized="1"
   inkscape:current-layer="Layer_1" />
<path
   d="m 21.549055,28.450254 6.042136,6.042135 c 0.541103,0.541103 1.372757,0.663324 2.046637,0.301662 l 7.241006,-3.887166 c 0.535548,-0.287774 1.182761,-0.273885 1.705531,0.03667 l 10.564848,6.269354 c 0.753878,0.447216 1.057207,1.382758 0.704434,2.184969 -0.902764,2.054415 -2.546074,5.819916 -3.198842,7.484892 -0.137221,0.35055 -0.341662,0.671657 -0.626103,0.917764 C 38.987693,53.903776 24.979006,46.467216 14.256383,35.744593 3.532093,25.021414 -3.9044665,11.012727 2.1987789,3.9717179 2.445442,3.6872775 2.7665484,3.482836 3.1165434,3.3456158 4.7809638,2.6928474 8.5470207,1.0495378 10.601435,0.14677303 11.403646,-0.20599966 12.339188,0.0973293 12.786404,0.85120732 L 19.055758,11.416055 c 0.309996,0.52277 0.323884,1.169983 0.03667,1.705531 l -3.887166,7.239896 c -0.361661,0.673879 -0.239441,1.505533 0.301662,2.046637 0,0 6.042135,6.042135 6.042135,6.042135 z"
   id="path15162"
   style="fill:#630000;fill-opacity:1;stroke-width:0.555548" />






</svg>
