<?xml version="1.0" encoding="UTF-8" standalone="no"?>
<!-- Created with Inkscape (http://www.inkscape.org/) -->

<svg
   width="50"
   height="50"
   viewBox="0 0 46.874999 46.875002"
   id="svg5027"
   version="1.1"
   inkscape:version="1.2.1 (9c6d41e410, 2022-07-14)"
   sodipodi:docname="new-instagram-logo-glyph.svg"
   xmlns:inkscape="http://www.inkscape.org/namespaces/inkscape"
   xmlns:sodipodi="http://sodipodi.sourceforge.net/DTD/sodipodi-0.dtd"
   xmlns="http://www.w3.org/2000/svg"
   xmlns:svg="http://www.w3.org/2000/svg"
   xmlns:rdf="http://www.w3.org/1999/02/22-rdf-syntax-ns#"
   xmlns:cc="http://creativecommons.org/ns#"
   xmlns:dc="http://purl.org/dc/elements/1.1/">
  <defs
     id="defs5029" />
  <sodipodi:namedview
     id="base"
     pagecolor="#ffffff"
     bordercolor="#666666"
     borderopacity="1.0"
     inkscape:pageopacity="0.0"
     inkscape:pageshadow="2"
     inkscape:zoom="11.313708"
     inkscape:cx="26.737475"
     inkscape:cy="28.593631"
     inkscape:document-units="px"
     inkscape:current-layer="svg5027"
     showgrid="false"
     units="pc"
     fit-margin-top="2"
     fit-margin-left="2"
     fit-margin-right="2"
     fit-margin-bottom="2"
     inkscape:window-width="1920"
     inkscape:window-height="1001"
     inkscape:window-x="-9"
     inkscape:window-y="-9"
     inkscape:window-maximized="1"
     inkscape:showpageshadow="2"
     inkscape:pagecheckerboard="0"
     inkscape:deskcolor="#d1d1d1" />
  <metadata
     id="metadata5032">
    <rdf:RDF>
      <cc:Work
         rdf:about="">
        <dc:format>image/svg+xml</dc:format>
        <dc:type
           rdf:resource="http://purl.org/dc/dcmitype/StillImage" />
      </cc:Work>
    </rdf:RDF>
  </metadata>
  <path
     inkscape:connector-curvature="0"
     style="fill:#840000;fill-opacity:1;fill-rule:nonzero;stroke-width:0.15625"
     d="M 23.4375,0 C 17.072873,0 16.274988,0.04046719 13.775406,0.14333281 11.28096,0.2572703 9.5807182,0.64759369 8.0901545,1.2271906 6.5489826,1.8258952 5.2367076,2.6307936 3.9338779,3.9336982 2.6310108,5.2366029 1.833614,6.5417057 1.2347968,8.0827745 0.65530151,9.5734795 0.25748593,11.280669 0.1437,13.775115 0.02939687,16.274696 0,17.072608 0,23.437171 c 0,6.364927 0.0293875,7.162474 0.1437,9.662057 0.11393593,2.494446 0.51160151,4.19465 1.0910968,5.685364 0.5988172,1.541059 1.396214,2.84617 2.6990811,4.149067 1.3028297,1.302905 2.6151047,2.10707 4.1562766,2.70614 1.4905637,0.579231 3.1908055,0.977274 5.6852515,1.09121 2.499582,0.113937 3.297467,0.135983 9.662094,0.135983 6.364628,0 7.162475,-0.03671 9.662093,-0.135983 2.49441,-0.113936 4.201852,-0.511979 5.692417,-1.09121 1.541172,-0.59907 2.846284,-1.403235 4.149113,-2.70614 1.302867,-1.302897 2.100226,-2.608008 2.699044,-4.149067 0.579493,-1.490714 0.977348,-3.190918 1.091134,-5.685364 0.114303,-2.499583 0.143699,-3.29713 0.143699,-9.662057 0,-6.364563 -0.02939,-7.162475 -0.143699,-9.662056 C 46.617364,11.280669 46.21966,9.5734795 45.640167,8.0827745 45.041349,6.5417057 44.24399,5.2366029 42.941123,3.9336982 41.638294,2.6307936 40.333182,1.8258952 38.79201,1.2271906 37.301445,0.64759369 35.594003,0.2572703 33.099593,0.14333281 30.600013,0.02939687 29.802128,0 23.4375,0 Z m 0,4.220742 c 6.257461,0 6.997011,0.036711 9.468256,0.1359812 2.284844,0.1029141 3.531471,0.490289 4.357278,0.8111515 1.093933,0.4252329 1.871885,0.9316891 2.691889,1.7516579 0.820147,0.8199669 1.326528,1.5980312 1.751506,2.6918031 0.320864,0.8258463 0.706876,2.0725203 0.81118,4.3570993 0.112471,2.471285 0.136358,3.211125 0.136358,9.46837 0,6.257602 -0.02573,6.997452 -0.136358,9.468368 -0.104379,2.284947 -0.490316,3.524271 -0.81118,4.350116 -0.424978,1.093771 -0.931359,1.878455 -1.751506,2.698789 -0.820004,0.819969 -1.597956,1.326425 -2.691889,1.751656 -0.825807,0.319755 -2.072434,0.700155 -4.357278,0.804167 -2.470879,0.113926 -3.210242,0.135981 -9.468256,0.135981 -6.258015,0 -6.997377,-0.03671 -9.468255,-0.135981 C 11.684399,42.406987 10.444937,42.026587 9.6191295,41.705734 8.5252076,41.280503 7.7400826,40.774047 6.9200763,39.954078 6.1001184,39.133744 5.5937279,38.34906 5.1685701,37.255289 4.8477076,36.429444 4.4688951,35.19012 4.364592,32.905173 4.2521201,30.434257 4.2282342,29.694407 4.2282342,23.436805 c 0,-6.257245 0.025727,-6.997085 0.1363578,-9.46837 C 4.4689717,11.683856 4.8477076,10.437182 5.1685701,9.6113357 5.5937279,8.5175638 6.1001184,7.7394995 6.9200763,6.9195326 7.7400826,6.0995638 8.5252076,5.5931076 9.6191295,5.1678747 10.444937,4.8481201 11.684399,4.4611029 13.969245,4.3567232 16.44049,4.2427967 17.18004,4.220742 23.4375,4.220742 Z m 12.511908,3.8906968 c -1.553049,0 -2.813938,1.2606357 -2.813938,2.8138242 0,1.553191 1.260889,2.813835 2.813938,2.813835 1.553227,0 2.813899,-1.260644 2.813899,-2.813835 0,-1.5531885 -1.260672,-2.8138242 -2.813899,-2.8138242 z M 23.4375,11.399018 c -6.646271,0 -12.030951,5.392068 -12.030951,12.038153 0,6.646461 5.38468,12.030801 12.030951,12.030801 6.646272,0 12.038115,-5.38434 12.038115,-12.030801 0,-6.646085 -5.391843,-12.038153 -12.038115,-12.038153 z m 0,4.228093 c 4.314314,0 7.81006,3.495962 7.81006,7.81006 0,4.314464 -3.495746,7.810059 -7.81006,7.810059 -4.314314,0 -7.810068,-3.495595 -7.810068,-7.810059 0,-4.314098 3.495754,-7.81006 7.810068,-7.81006 z"
     id="path4642" />
</svg>
